<svg width="82" height="82" viewBox="0 0 82 82" fill="none" xmlns="http://www.w3.org/2000/svg">
<g clip-path="url(#clip0_19_174)">
<path d="M80.8809 57.3329C80.8809 57.3329 80.8922 57.3216 80.896 57.316C81.6025 56.5931 82 55.7897 82 54.9413C82 54.2765 81.7551 53.6378 81.3105 53.0442C80.6661 52.1864 79.5979 51.4242 78.2226 50.8118C78.2283 50.5571 78.232 50.3043 78.232 50.0496C78.232 33.3686 67.1222 19.2702 51.8564 14.6594V27.6472C51.8564 28.0742 51.5079 28.4188 51.0802 28.4188H50.6808C50.2513 28.4188 49.9046 28.0724 49.9046 27.6472V13.5901C49.6051 12.1143 48.2995 11 46.7245 11H35.2322C33.7608 11 32.5231 11.972 32.1237 13.3054V27.6454C32.1237 28.0724 31.7751 28.417 31.3475 28.417H30.9481C30.5185 28.417 30.1719 28.0705 30.1719 27.6454V14.6632C14.9135 19.2815 3.81505 33.3742 3.81505 50.0477C3.81505 50.2949 3.81882 50.5421 3.82447 50.7893C2.43598 51.4017 1.35458 52.1677 0.700839 53.0273C0.248685 53.6247 0 54.269 0 54.9394C0 55.4882 0.16579 56.0163 0.472878 56.5182C1.76717 59.8555 13.4327 62.6198 29.1225 63.5599C32.9319 63.8464 36.9184 63.9981 41.0217 63.9981C45.3793 63.9981 49.6032 63.8258 53.6236 63.5056C64.658 62.7902 73.6031 61.1665 78.1868 59.082C78.6088 58.8948 79.0026 58.6963 79.3643 58.4828C79.9823 58.1251 80.474 57.7561 80.8338 57.3759C80.8489 57.361 80.864 57.3441 80.879 57.3291L80.8809 57.3329ZM8.34224 49.5308C8.53441 37.3202 15.4995 26.7464 25.6692 21.3565V29.8216C25.6692 30.9602 26.5961 31.8816 27.7415 31.8816H54.3998C55.5452 31.8816 56.4721 30.9602 56.4721 29.8216V21.4052C66.591 26.8101 73.5165 37.3614 73.7049 49.5364C73.7067 49.7069 73.7105 49.8754 73.7105 50.0458C73.7105 52.001 73.5372 53.9169 73.2037 55.7784C69.3284 56.7972 64.9123 57.6363 60.0988 58.2487C54.2377 58.9959 47.7927 59.4098 41.0235 59.4098C34.2544 59.4098 27.7811 58.994 21.9087 58.2449C17.1103 57.6325 12.7074 56.7954 8.84338 55.7784C8.50991 53.9169 8.33659 52.0029 8.33659 50.0458C8.33659 49.8735 8.34036 49.7012 8.34224 49.5289V49.5308Z" fill="white"/>
<path d="M53.2447 37.1968C53.4265 37.197 53.5735 37.3433 53.5738 37.5239V52.5063C53.5738 52.6872 53.4266 52.8343 53.2447 52.8345H50.6539C50.4718 52.8345 50.3238 52.6874 50.3238 52.5063V37.5239C50.3241 37.3431 50.472 37.1968 50.6539 37.1968H53.2447ZM38.5816 37.2661C39.4482 37.2662 40.2452 37.7381 40.6578 38.4946L48.024 52.1841L48.0201 52.1831C48.1554 52.4358 47.9712 52.7385 47.6851 52.7388H44.7877C44.7011 52.7388 44.6211 52.6924 44.5797 52.6157L42.8697 49.4146H32.5963L30.8668 52.6616C30.8273 52.7364 30.7462 52.7855 30.6597 52.7856H27.7633C27.4771 52.7854 27.2928 52.4799 27.4303 52.229L34.8892 38.4985C35.3018 37.7402 36.1 37.2663 36.9683 37.2661H38.5816ZM38.109 40.5073C37.9469 40.2041 37.5093 40.2042 37.3472 40.5073L33.9713 46.8413H41.4957L38.109 40.5073Z" fill="url(#paint0_linear_19_174)"/>
</g>
<defs>
<linearGradient id="paint0_linear_19_174" x1="36.6311" y1="54.9991" x2="48.5041" y2="37.2223" gradientUnits="userSpaceOnUse">
<stop stop-color="#05F282"/>
<stop offset="1" stop-color="#0081FF"/>
</linearGradient>
<clipPath id="clip0_19_174">
<rect width="82" height="53" fill="white" transform="translate(0 11)"/>
</clipPath>
</defs>
</svg>
